mtllib groundEarth.mtl
g groundEarth
v -.250 -.25000000 -.433
v -.5 -.25 -0
v -.500 .475 -0
v -.250 .475 -.433
v .500 -.25 0
v .250 -.25 -.433
v .250 .475 -.433
v .500 .475 0
v -.250 -.25 .433
v -.250 .475 .433
v .250 -.25 .433
v .250 .475 .433
vt 0.167789 0.289254
vt 0.001948 0.289395
vt 0.002089 0.455221
vt 0.167895 0.455080
vt 0.499519 0.289178
vt 0.333652 0.289181
vt 0.333686 0.455008
vt 0.499464 0.455009
vt 0.997073 0.289630
vt 0.831232 0.289417
vt 0.831053 0.455245
vt 0.996859 0.455456
vt 0.665370 0.289275
vt 0.499519 0.289178
vt 0.499464 0.455009
vt 0.665260 0.455096
vt 0.333652 0.289181
vt 0.167789 0.289254
vt 0.167895 0.455080
vt 0.333686 0.455008
vt 0.831232 0.289417
vt 0.665370 0.289275
vt 0.665260 0.455096
vt 0.831053 0.455245
vt 0.665141 0.742316
vt 0.748122 0.598737
vt 0.499464 0.455009
vt 0.665260 0.455096
vt 0.416480 0.598561
vt 0.499308 0.742221
vt 0.499519 0.289178
vt 0.665370 0.289275
vt 0.665554 0.002071
vt 0.748363 0.145720
vt 0.416713 0.145490
vt 0.499744 0.001948
vn -0.864558 0 -0.499167
vn -0.864558 0 -0.499167
vn -0.864558 0 -0.499167
vn -0.864558 0 -0.499167
vn 0.864558 0 -0.499167
vn 0.864558 0 -0.499167
vn 0.864558 0 -0.499167
vn 0.864558 0 -0.499167
vn -0.864558 0 0.499167
vn -0.864558 0 0.499167
vn -0.864558 0 0.499167
vn -0.864558 0 0.499167
vn 0.864558 0 0.499167
vn 0.864558 0 0.499167
vn 0.864558 0 0.499167
vn 0.864558 0 0.499167
vn 0 0 -1
vn 0 0 -1
vn 0 0 -1
vn 0 0 -1
vn 0 0 1
vn 0 0 1
vn 0 0 1
vn 0 0 1
vn 0 1 0
vn 0 1 0
vn 0 1 0
vn 0 1 0
vn 0 1 0
vn 0 1 0
vn 0 -1 0
vn 0 -1 0
vn 0 -1 0
vn 0 -1 0
vn 0 -1 0
vn 0 -1 0
usemtl groundEarth_base_color
f 1/1/1 2/2/2 3/3/3
f 3/3/3 4/4/4 1/1/1
f 5/5/5 6/6/6 7/7/7
f 7/7/7 8/8/8 5/5/5
f 2/9/9 9/10/10 10/11/11
f 10/11/11 3/12/12 2/9/9
f 11/13/13 5/14/14 8/15/15
f 8/15/15 12/16/16 11/13/13
f 6/17/17 1/18/18 4/19/19
f 4/19/19 7/20/20 6/17/17
f 9/21/21 11/22/22 12/23/23
f 12/23/23 10/24/24 9/21/21
f 3/25/25 10/26/26 8/27/27
f 12/28/28 8/27/27 10/26/26
f 8/27/27 7/29/29 3/25/25
f 4/30/30 3/25/25 7/29/29
f 5/31/31 11/32/32 2/33/33
f 9/34/34 2/33/33 11/32/32
f 6/35/35 5/31/31 2/33/33
f 2/33/33 1/36/36 6/35/35
